<?xml version="1.0" standalone="no"?>
<!DOCTYPE svg PUBLIC "-//W3C//DTD SVG 20010904//EN"
 "http://www.w3.org/TR/2001/REC-SVG-20010904/DTD/svg10.dtd">
<svg version="1.0" xmlns="http://www.w3.org/2000/svg"
 width="300.000000pt" height="300.000000pt" viewBox="0 0 300.000000 300.000000"
 preserveAspectRatio="xMidYMid meet">
<metadata>
Created by potrace 1.10, written by Peter Selinger 2001-2011
</metadata>
<g transform="translate(0.000000,300.000000) scale(0.100000,-0.100000)"
fill="#000000" stroke="none">
<path d="M1475 2727 c-27 -9 -166 -88 -560 -316 -88 -51 -214 -124 -281 -162
-135 -77 -168 -105 -195 -167 -18 -42 -25 -92 -13 -92 20 0 62 44 68 70 8 41
35 64 157 134 176 101 326 188 539 311 308 179 306 177 367 172 40 -4 73 -18
135 -55 46 -27 223 -129 393 -227 464 -266 476 -274 502 -320 22 -38 23 -50
23 -281 l0 -242 25 -4 c13 -3 27 -3 30 0 3 3 5 107 5 232 0 263 -8 305 -68
366 -21 22 -112 81 -203 133 -90 52 -218 126 -284 164 -66 39 -136 79 -155 90
-19 10 -105 59 -192 109 -134 76 -164 89 -210 92 -29 2 -66 -1 -83 -7z"/>
<path d="M1488 2456 c-57 -21 -85 -42 -116 -88 -22 -34 -27 -53 -28 -108 -1
-37 -7 -77 -13 -89 -19 -35 -24 -104 -12 -162 14 -67 86 -166 166 -227 l56
-44 54 42 c55 43 120 120 150 179 25 50 31 142 12 193 -8 24 -15 71 -14 104 0
50 -5 71 -27 108 -47 80 -150 121 -228 92z m125 -33 c5 -3 0 -15 -11 -27 -11
-11 -27 -36 -36 -53 -17 -34 -36 -44 -36 -20 0 8 -14 33 -30 56 -21 28 -26 43
-18 45 7 3 20 7 28 10 16 5 89 -3 103 -11z m-146 -45 c33 -36 52 -82 59 -140
4 -29 8 -56 11 -61 10 -18 23 7 23 46 0 48 36 132 69 162 22 19 22 19 46 -10
106 -129 -5 -312 -170 -281 -43 8 -103 59 -121 103 -26 61 -13 133 34 186 20
22 24 22 49 -5z m-38 -337 c-4 -25 -8 -70 -8 -99 -1 -29 -5 -51 -10 -48 -5 3
-21 27 -36 52 -31 53 -44 151 -26 198 l11 28 38 -43 c36 -40 38 -45 31 -88z
m305 103 c15 -40 6 -131 -19 -181 -45 -89 -51 -86 -58 27 l-6 99 32 34 c37 40
43 42 51 21z m-110 -99 c3 -11 6 -61 6 -111 l0 -91 -39 -31 c-22 -18 -44 -32
-49 -32 -4 0 -27 14 -50 32 l-42 32 0 91 c0 135 -3 130 90 130 71 0 79 -2 84
-20z"/>
<path d="M1412 2298 c-19 -19 -14 -55 10 -72 19 -13 25 -14 43 -2 24 16 31 51
15 72 -15 17 -52 18 -68 2z m51 -25 c4 -3 2 -12 -4 -20 -9 -10 -15 -10 -25 -2
-8 6 -11 15 -8 20 6 11 28 12 37 2z"/>
<path d="M1607 2292 c-10 -10 -17 -24 -17 -30 0 -15 36 -52 50 -52 15 0 50 38
50 54 0 20 -28 46 -49 46 -10 0 -25 -8 -34 -18z m51 -29 c-2 -10 -10 -18 -18
-18 -8 0 -16 8 -18 18 -2 12 3 17 18 17 15 0 20 -5 18 -17z"/>
<path d="M451 1960 c-98 -45 -180 -137 -254 -286 -70 -140 -82 -184 -82 -304
0 -113 15 -159 67 -206 63 -58 165 -72 250 -36 83 37 162 136 137 173 -8 11
-13 9 -27 -11 -55 -81 -130 -122 -212 -119 -102 5 -150 66 -150 191 0 88 17
151 75 274 52 112 111 192 178 242 46 33 58 37 111 37 52 0 61 -3 79 -27 12
-17 20 -41 19 -62 -2 -40 12 -54 33 -36 22 18 19 109 -3 136 -46 55 -142 70
-221 34z"/>
<path d="M1940 1852 c-7 -15 -23 -52 -35 -82 -105 -257 -106 -257 -185 -426
-26 -56 -53 -105 -59 -108 -17 -11 -14 64 5 139 20 78 13 128 -23 161 -75 70
-220 -25 -273 -178 -16 -46 -33 -72 -61 -97 -22 -19 -43 -31 -46 -27 -4 4 -1
26 5 49 22 74 35 164 28 191 -15 59 -111 57 -188 -5 -20 -16 -39 -29 -42 -29
-3 0 -2 15 1 34 4 26 1 35 -13 40 -18 7 -34 -8 -34 -33 0 -27 -51 -177 -73
-215 -45 -79 -66 -46 -47 75 15 94 8 138 -25 169 -80 75 -233 -39 -266 -197
-21 -101 9 -171 77 -182 44 -8 68 3 127 58 20 19 37 29 37 23 0 -7 11 -24 25
-38 21 -21 28 -23 47 -13 43 22 66 51 88 108 37 101 144 201 215 201 32 0 33
-25 4 -135 -30 -114 -33 -133 -19 -150 20 -24 55 -17 104 20 52 40 56 41 56
20 0 -28 47 -65 82 -65 35 0 90 28 123 63 l19 21 6 -24 c3 -14 17 -30 30 -37
32 -16 72 7 94 54 18 38 30 37 40 -3 16 -63 93 -92 157 -60 31 16 36 16 65 0
69 -37 142 24 224 188 28 56 53 104 55 106 2 2 21 -6 44 -17 l41 -21 -30 -59
c-72 -141 -80 -220 -23 -242 29 -11 76 7 113 43 54 53 79 88 74 103 -6 16 12
45 27 45 5 0 6 -12 3 -27 -4 -15 -7 -33 -7 -40 0 -7 -4 -10 -9 -7 -15 9 -8
-76 8 -101 9 -14 28 -31 44 -38 50 -25 124 14 171 90 24 39 39 35 39 -10 0
-18 9 -47 20 -65 20 -33 82 -68 100 -57 20 12 10 44 -17 57 -15 7 -34 26 -42
42 -17 36 -16 140 3 226 12 58 12 67 -2 82 -20 23 -35 10 -51 -43 -38 -126
-137 -279 -182 -279 -59 0 -62 115 -8 246 28 68 30 77 16 91 -8 8 -19 13 -24
10 -5 -3 -38 -54 -74 -113 -69 -115 -144 -204 -173 -204 -26 0 -14 46 46 168
28 57 48 106 44 109 -16 16 -180 83 -187 76 -3 -5 -25 -51 -48 -103 -59 -136
-136 -232 -170 -211 -11 7 -7 22 19 74 18 37 35 86 37 110 14 119 -77 201
-169 153 -16 -8 -28 -12 -28 -8 0 4 15 46 34 92 82 202 87 219 67 229 -15 8
-21 5 -31 -17z m60 -348 c10 -10 15 -34 15 -77 -1 -73 -31 -143 -82 -188 -49
-42 -79 -47 -110 -16 -51 50 -39 168 23 236 59 66 115 82 154 45z m-386 -10
c34 -34 15 -128 -42 -207 -37 -51 -76 -77 -116 -77 -91 0 -32 214 78 281 38
23 60 24 80 3z m-769 -24 c52 -57 -15 -239 -106 -285 -35 -19 -44 -19 -63 1
-21 20 -21 112 -1 161 21 51 61 101 99 124 39 24 49 24 71 -1z m1934 -179 c-2
-31 -6 -37 -20 -34 -17 5 -17 7 -1 39 9 18 18 34 20 34 2 0 2 -17 1 -39z"/>
<path d="M2806 1585 c-21 -22 -6 -59 26 -63 14 -2 31 4 38 12 14 18 0 22 -17
5 -17 -17 -43 -3 -42 23 1 21 1 21 7 3 8 -24 32 -31 32 -9 0 8 -4 13 -8 10 -5
-3 -9 1 -9 9 0 20 14 19 26 -2 6 -10 11 -13 11 -7 0 14 -21 34 -36 34 -7 0
-19 -7 -28 -15z"/>
<path d="M433 1073 c-9 -3 -13 -30 -13 -82 0 -62 5 -87 25 -128 14 -28 33 -57
43 -66 18 -16 283 -171 716 -418 278 -159 312 -172 394 -150 24 6 176 88 338
182 162 93 311 179 330 190 327 183 362 211 390 305 8 29 14 75 12 101 -3 44
-5 48 -29 51 -27 3 -27 3 -30 -77 -4 -71 -7 -83 -35 -118 -28 -34 -139 -104
-364 -230 -43 -24 -172 -99 -455 -262 -154 -90 -193 -104 -245 -92 -20 4 -110
51 -200 103 -91 52 -289 166 -440 253 -411 236 -382 210 -390 350 -5 91 -12
103 -47 88z"/>
<path d="M982 1040 c-55 -34 -69 -96 -31 -144 36 -46 119 -54 119 -11 0 19 -5
22 -37 21 -30 -1 -40 4 -52 25 -13 24 -13 29 3 54 15 23 23 26 52 22 31 -5 34
-4 34 19 0 13 -6 24 -12 25 -7 0 -20 2 -30 4 -9 2 -30 -5 -46 -15z"/>
<path d="M1224 1049 c-69 -26 -87 -108 -35 -160 62 -62 171 -20 171 65 0 66
-74 119 -136 95z m83 -65 c15 -24 15 -29 2 -53 -20 -36 -71 -41 -93 -9 -20 29
-20 47 1 70 24 27 69 23 90 -8z"/>
<path d="M1450 955 c0 -95 0 -95 25 -95 23 0 25 4 25 40 0 36 3 40 25 40 16 0
25 6 25 15 0 9 -9 15 -25 15 -14 0 -25 5 -25 10 0 6 -1 13 -2 17 -2 4 10 10
27 13 18 3 31 12 33 23 3 14 -5 17 -52 17 l-56 0 0 -95z"/>
<path d="M1650 955 c0 -87 2 -95 19 -95 16 0 20 8 23 38 3 32 7 37 31 40 35 4
35 30 0 34 -41 4 -44 38 -5 38 28 0 48 20 35 34 -4 3 -28 6 -55 6 l-48 0 0
-95z"/>
<path d="M1848 955 l3 -95 50 0 c42 0 49 3 49 20 0 16 -7 20 -31 20 -24 0 -30
4 -27 18 2 10 14 18 31 20 35 4 35 30 0 34 -17 2 -29 10 -31 21 -3 13 3 17 27
17 24 0 31 4 31 20 0 17 -7 20 -52 20 l-53 0 3 -95z"/>
<path d="M2050 955 l0 -95 50 0 c43 0 50 3 50 20 0 16 -7 20 -31 20 -24 0 -30
4 -27 18 2 10 14 18 31 20 35 4 35 30 0 34 -17 2 -29 10 -31 21 -3 13 3 17 27
17 24 0 31 4 31 20 0 17 -7 20 -50 20 l-50 0 0 -95z"/>
<path d="M1415 675 c0 -44 1 -45 33 -45 22 0 32 5 32 15 0 18 -12 19 -28 3 -9
-9 -12 -8 -12 4 0 9 8 19 18 21 16 4 16 5 0 6 -10 0 -18 6 -18 12 0 6 9 8 20
4 14 -5 20 -2 20 9 0 11 -10 16 -32 16 -32 0 -33 -1 -33 -45z"/>
<path d="M1513 704 c-4 -11 2 -23 18 -35 13 -10 20 -21 16 -26 -5 -4 -12 -1
-17 7 -5 8 -12 11 -15 8 -11 -11 5 -28 26 -28 31 0 36 30 8 52 l-24 19 24 -6
c17 -5 22 -4 19 6 -7 21 -47 23 -55 3z"/>
<path d="M1600 704 c0 -11 5 -14 16 -10 14 5 16 1 11 -29 -5 -29 -3 -35 12
-35 14 0 16 7 13 35 -4 29 -1 34 12 29 11 -4 16 -1 16 10 0 12 -10 16 -40 16
-30 0 -40 -4 -40 -16z"/>
<path d="M1157 684 c-17 -17 11 -24 94 -24 68 0 90 3 87 13 -5 13 -168 23
-181 11z"/>
<path d="M1727 684 c-17 -17 11 -24 94 -24 68 0 90 3 87 13 -5 13 -168 23
-181 11z"/>
<path d="M1367 579 c-9 -6 -15 -15 -11 -20 4 -6 11 -6 20 2 8 6 17 9 21 6 3
-4 -6 -16 -20 -28 -36 -28 -34 -39 8 -39 24 0 35 5 35 15 0 9 -6 12 -17 8 -16
-6 -16 -4 1 15 32 36 6 66 -37 41z"/>
<path d="M1474 575 c-24 -17 -24 -46 -1 -63 35 -26 78 9 57 48 -13 25 -35 31
-56 15z m39 -17 c6 -19 -3 -38 -18 -38 -7 0 -15 6 -18 13 -6 18 3 37 18 37 7
0 15 -6 18 -12z"/>
<path d="M1570 574 c0 -7 6 -14 13 -17 10 -3 10 -9 0 -26 -18 -28 -17 -31 11
-31 30 0 42 15 20 24 -11 4 -14 14 -9 35 5 26 4 30 -14 28 -12 -1 -21 -7 -21
-13z"/>
<path d="M1660 575 c0 -8 5 -15 10 -15 6 0 10 5 10 11 0 5 5 7 11 3 8 -4 7 -9
-2 -16 -11 -7 -11 -11 -1 -15 23 -9 12 -25 -13 -19 -30 8 -34 -10 -4 -19 30
-10 48 13 42 53 -4 26 -10 32 -29 32 -15 0 -24 -6 -24 -15z"/>
</g>
</svg>
